# xmcd CD database file
#
# Track frame offsets:
#	182
#	21407
#	48320
#	67527
#	90810
#	112635
#	135682
#	158155
#	179035
#	205647
#	226320
#	252742
#	276955
#	294870
#
# Disc length: 4181 seconds
#
# Revision: 0
# Processed by: cddbd v1.4PL0 Copyright (c) Steve Scherf et al.
# Submitted via: CDex 1.51
#
DISCID=b610530e
DTITLE=Claude Tissendier Quintet - Basic Tenors
DYEAR=2000
DGENRE=Jazz
TTITLE0=Deux Claude
TTITLE1=Labour Day Bounce
TTITLE2=Rue de Vaugirard
TTITLE3=Pas de Deux
TTITLE4=Danny
TTITLE5=Tiss Blues
TTITLE6=Oncle Braud
TTITLE7=Tiss et Braud
TTITLE8=L.L. Swing
TTITLE9=Just a second
TTITLE10=She's just my size
TTITLE11=Le blues de la couette
TTITLE12=Mr le Comte
TTITLE13=Simple Messieurs
EXTD=YEAR: 2000
EXTT0=
EXTT1=
EXTT2=
EXTT3=
EXTT4=
EXTT5=
EXTT6=
EXTT7=
EXTT8=
EXTT9=
EXTT10=
EXTT11=
EXTT12=
EXTT13=
PLAYORDER=
